<mxfile host="app.diagrams.net" modified="2022-07-22T14:06:29.238Z" agent="5.0 (Windows NT 10.0; Win64; x64) AppleWebKit/537.36 (KHTML, like Gecko) Chrome/103.0.0.0 Safari/537.36" etag="19g5jXcPW_xmDuV0VcaW" version="20.1.4" type="github" pages="3">
  <diagram id="zv8Aa9wL1IGIpkSlRC8T" name="Dragon">
    <mxGraphModel dx="1369" dy="-2456" grid="1" gridSize="10" guides="1" tooltips="1" connect="1" arrows="1" fold="1" page="1" pageScale="1" pageWidth="850" pageHeight="1100" math="0" shadow="0">
      <root>
        <mxCell id="0" />
        <mxCell id="1" parent="0" />
        <mxCell id="O4k60PI5ibWS8e1Z0X-O-1" value="Dragon" style="swimlane;" parent="1" vertex="1">
          <mxGeometry x="20" y="3320" width="310" height="140" as="geometry" />
        </mxCell>
        <mxCell id="O4k60PI5ibWS8e1Z0X-O-2" value="Galaxy Dragon" style="whiteSpace=wrap;html=1;" parent="O4k60PI5ibWS8e1Z0X-O-1" vertex="1">
          <mxGeometry x="20" y="50" width="120" height="60" as="geometry" />
        </mxCell>
        <mxCell id="O4k60PI5ibWS8e1Z0X-O-3" value="Red-Eyes Darkness Metal Dragon" style="whiteSpace=wrap;html=1;fillColor=#e1d5e7;strokeColor=#9673a6;" parent="O4k60PI5ibWS8e1Z0X-O-1" vertex="1">
          <mxGeometry x="165" y="50" width="120" height="60" as="geometry" />
        </mxCell>
        <mxCell id="O4k60PI5ibWS8e1Z0X-O-4" style="edgeStyle=orthogonalEdgeStyle;rounded=0;orthogonalLoop=1;jettySize=auto;html=1;entryX=0;entryY=0.5;entryDx=0;entryDy=0;" parent="O4k60PI5ibWS8e1Z0X-O-1" source="O4k60PI5ibWS8e1Z0X-O-2" target="O4k60PI5ibWS8e1Z0X-O-3" edge="1">
          <mxGeometry relative="1" as="geometry" />
        </mxCell>
        <mxCell id="ktGTE_c1SDz5uOH07skm-1" value="Blue-Eyes White Dragon" style="swimlane;" parent="1" vertex="1">
          <mxGeometry x="48.5" y="3790" width="920" height="400" as="geometry">
            <mxRectangle x="1680" y="1710" width="180" height="30" as="alternateBounds" />
          </mxGeometry>
        </mxCell>
        <mxCell id="ktGTE_c1SDz5uOH07skm-2" value="Blue-Eyes White Dragon" style="whiteSpace=wrap;html=1;fillColor=#e1d5e7;strokeColor=#9673a6;" parent="ktGTE_c1SDz5uOH07skm-1" vertex="1">
          <mxGeometry x="640" y="250" width="123" height="60" as="geometry" />
        </mxCell>
        <mxCell id="ktGTE_c1SDz5uOH07skm-3" value="Alternative Blue-Eyes White Dragon" style="whiteSpace=wrap;html=1;fillColor=#e1d5e7;strokeColor=#9673a6;" parent="ktGTE_c1SDz5uOH07skm-1" vertex="1">
          <mxGeometry x="640" y="320" width="123" height="60" as="geometry" />
        </mxCell>
        <mxCell id="ktGTE_c1SDz5uOH07skm-4" value="" style="edgeStyle=orthogonalEdgeStyle;rounded=0;orthogonalLoop=1;jettySize=auto;html=1;exitX=1;exitY=0.75;exitDx=0;exitDy=0;verticalAlign=bottom;" parent="ktGTE_c1SDz5uOH07skm-1" source="ktGTE_c1SDz5uOH07skm-6" target="ktGTE_c1SDz5uOH07skm-2" edge="1">
          <mxGeometry relative="1" as="geometry">
            <Array as="points">
              <mxPoint x="270" y="85" />
              <mxPoint x="270" y="130" />
              <mxPoint x="592" y="130" />
            </Array>
          </mxGeometry>
        </mxCell>
        <mxCell id="ktGTE_c1SDz5uOH07skm-5" style="edgeStyle=orthogonalEdgeStyle;rounded=0;orthogonalLoop=1;jettySize=auto;html=1;entryX=0.5;entryY=0;entryDx=0;entryDy=0;" parent="ktGTE_c1SDz5uOH07skm-1" source="ktGTE_c1SDz5uOH07skm-6" target="ktGTE_c1SDz5uOH07skm-20" edge="1">
          <mxGeometry relative="1" as="geometry" />
        </mxCell>
        <mxCell id="ktGTE_c1SDz5uOH07skm-6" value="The White Stone of Ancients" style="whiteSpace=wrap;html=1;fillColor=#fff2cc;strokeColor=#d6b656;" parent="ktGTE_c1SDz5uOH07skm-1" vertex="1">
          <mxGeometry x="210" y="40" width="123" height="60" as="geometry" />
        </mxCell>
        <mxCell id="ktGTE_c1SDz5uOH07skm-7" value="" style="edgeStyle=orthogonalEdgeStyle;rounded=0;orthogonalLoop=1;jettySize=auto;html=1;entryX=0;entryY=0.5;entryDx=0;entryDy=0;startArrow=none;startFill=0;verticalAlign=bottom;" parent="ktGTE_c1SDz5uOH07skm-1" source="ktGTE_c1SDz5uOH07skm-8" target="ktGTE_c1SDz5uOH07skm-6" edge="1">
          <mxGeometry relative="1" as="geometry" />
        </mxCell>
        <mxCell id="ktGTE_c1SDz5uOH07skm-8" value="Cards of Consonance" style="whiteSpace=wrap;html=1;fillColor=#fff2cc;strokeColor=#d6b656;" parent="ktGTE_c1SDz5uOH07skm-1" vertex="1">
          <mxGeometry x="20" y="40" width="120" height="60" as="geometry" />
        </mxCell>
        <mxCell id="ktGTE_c1SDz5uOH07skm-9" value="" style="edgeStyle=orthogonalEdgeStyle;rounded=0;orthogonalLoop=1;jettySize=auto;html=1;verticalAlign=bottom;" parent="ktGTE_c1SDz5uOH07skm-1" source="ktGTE_c1SDz5uOH07skm-10" target="ktGTE_c1SDz5uOH07skm-2" edge="1">
          <mxGeometry relative="1" as="geometry" />
        </mxCell>
        <mxCell id="ktGTE_c1SDz5uOH07skm-10" value="Maiden with Eyes of Blue" style="whiteSpace=wrap;html=1;fillColor=#dae8fc;strokeColor=#6c8ebf;" parent="ktGTE_c1SDz5uOH07skm-1" vertex="1">
          <mxGeometry x="20" y="250" width="120" height="60" as="geometry" />
        </mxCell>
        <mxCell id="ktGTE_c1SDz5uOH07skm-11" style="edgeStyle=orthogonalEdgeStyle;rounded=0;orthogonalLoop=1;jettySize=auto;html=1;" parent="ktGTE_c1SDz5uOH07skm-1" source="ktGTE_c1SDz5uOH07skm-12" target="ktGTE_c1SDz5uOH07skm-2" edge="1">
          <mxGeometry relative="1" as="geometry" />
        </mxCell>
        <mxCell id="ktGTE_c1SDz5uOH07skm-12" value="Dragon Spirit of White" style="whiteSpace=wrap;html=1;fillColor=#fff2cc;strokeColor=#d6b656;" parent="ktGTE_c1SDz5uOH07skm-1" vertex="1">
          <mxGeometry x="580" y="40" width="120" height="60" as="geometry" />
        </mxCell>
        <mxCell id="ktGTE_c1SDz5uOH07skm-13" value="" style="edgeStyle=orthogonalEdgeStyle;rounded=0;orthogonalLoop=1;jettySize=auto;html=1;startArrow=none;startFill=0;verticalAlign=bottom;entryX=0;entryY=0.5;entryDx=0;entryDy=0;" parent="ktGTE_c1SDz5uOH07skm-1" source="ktGTE_c1SDz5uOH07skm-6" target="ktGTE_c1SDz5uOH07skm-12" edge="1">
          <mxGeometry relative="1" as="geometry">
            <mxPoint x="240" y="100" as="targetPoint" />
          </mxGeometry>
        </mxCell>
        <mxCell id="ktGTE_c1SDz5uOH07skm-14" value="Blue-Eyes Chaos MAX Dragon" style="whiteSpace=wrap;html=1;fillColor=#e1d5e7;strokeColor=#9673a6;" parent="ktGTE_c1SDz5uOH07skm-1" vertex="1">
          <mxGeometry x="780" y="250" width="120" height="60" as="geometry" />
        </mxCell>
        <mxCell id="ktGTE_c1SDz5uOH07skm-15" value="" style="shape=filledEdge;rounded=0;fixDash=1;endArrow=none;strokeWidth=10;fillColor=#ffffff;edgeStyle=orthogonalEdgeStyle;exitX=1;exitY=0.5;exitDx=0;exitDy=0;entryX=0;entryY=0.5;entryDx=0;entryDy=0;" parent="ktGTE_c1SDz5uOH07skm-1" source="ktGTE_c1SDz5uOH07skm-2" target="ktGTE_c1SDz5uOH07skm-14" edge="1">
          <mxGeometry width="60" height="40" relative="1" as="geometry">
            <mxPoint x="720" y="130" as="sourcePoint" />
            <mxPoint x="780" y="90" as="targetPoint" />
          </mxGeometry>
        </mxCell>
        <mxCell id="ktGTE_c1SDz5uOH07skm-16" value="Chaos Form" style="whiteSpace=wrap;html=1;fillColor=#dae8fc;strokeColor=#6c8ebf;" parent="ktGTE_c1SDz5uOH07skm-1" vertex="1">
          <mxGeometry x="780" y="170" width="120" height="60" as="geometry" />
        </mxCell>
        <mxCell id="ktGTE_c1SDz5uOH07skm-17" value="" style="shape=filledEdge;rounded=0;fixDash=1;endArrow=none;strokeWidth=10;fillColor=#ffffff;edgeStyle=orthogonalEdgeStyle;exitX=0.5;exitY=0;exitDx=0;exitDy=0;" parent="ktGTE_c1SDz5uOH07skm-1" source="ktGTE_c1SDz5uOH07skm-14" target="ktGTE_c1SDz5uOH07skm-16" edge="1">
          <mxGeometry width="60" height="40" relative="1" as="geometry">
            <mxPoint x="910" y="50" as="sourcePoint" />
            <mxPoint x="970" y="10" as="targetPoint" />
          </mxGeometry>
        </mxCell>
        <mxCell id="ktGTE_c1SDz5uOH07skm-18" value="" style="shape=filledEdge;rounded=0;fixDash=1;endArrow=none;strokeWidth=10;fillColor=#ffffff;edgeStyle=orthogonalEdgeStyle;entryX=0.5;entryY=1;entryDx=0;entryDy=0;exitX=0.5;exitY=0;exitDx=0;exitDy=0;" parent="ktGTE_c1SDz5uOH07skm-1" source="ktGTE_c1SDz5uOH07skm-3" target="ktGTE_c1SDz5uOH07skm-2" edge="1">
          <mxGeometry width="60" height="40" relative="1" as="geometry">
            <mxPoint x="540" y="270" as="sourcePoint" />
            <mxPoint x="600" y="230" as="targetPoint" />
          </mxGeometry>
        </mxCell>
        <mxCell id="ktGTE_c1SDz5uOH07skm-19" style="edgeStyle=orthogonalEdgeStyle;rounded=0;orthogonalLoop=1;jettySize=auto;html=1;entryX=0;entryY=0.5;entryDx=0;entryDy=0;" parent="ktGTE_c1SDz5uOH07skm-1" source="ktGTE_c1SDz5uOH07skm-20" target="ktGTE_c1SDz5uOH07skm-2" edge="1">
          <mxGeometry relative="1" as="geometry" />
        </mxCell>
        <mxCell id="ktGTE_c1SDz5uOH07skm-20" value="Blue-Eyes Solid Dragon" style="whiteSpace=wrap;html=1;fillColor=#dae8fc;strokeColor=#6c8ebf;" parent="ktGTE_c1SDz5uOH07skm-1" vertex="1">
          <mxGeometry x="210" y="170" width="120" height="60" as="geometry" />
        </mxCell>
        <mxCell id="ktGTE_c1SDz5uOH07skm-23" style="edgeStyle=orthogonalEdgeStyle;rounded=0;orthogonalLoop=1;jettySize=auto;html=1;entryX=0.5;entryY=0;entryDx=0;entryDy=0;" parent="1" source="ktGTE_c1SDz5uOH07skm-22" target="ktGTE_c1SDz5uOH07skm-6" edge="1">
          <mxGeometry relative="1" as="geometry" />
        </mxCell>
        <mxCell id="ktGTE_c1SDz5uOH07skm-22" value="Discard Engine" style="swimlane;" parent="1" vertex="1">
          <mxGeometry x="20" y="3480" width="600" height="290" as="geometry" />
        </mxCell>
        <mxCell id="0JxGeK7PizC5W6enQliI-1" value="Twin Twisters" style="whiteSpace=wrap;html=1;fillColor=#ffe6cc;strokeColor=#d79b00;" parent="ktGTE_c1SDz5uOH07skm-22" vertex="1">
          <mxGeometry x="140" y="40" width="120" height="60" as="geometry" />
        </mxCell>
        <mxCell id="TkjOUOhSY8arpm2TrO54-1" value="Pendulum Magician Discard Engine" style="swimlane;" parent="ktGTE_c1SDz5uOH07skm-22" vertex="1">
          <mxGeometry x="280" y="40" width="300" height="230" as="geometry" />
        </mxCell>
        <mxCell id="TkjOUOhSY8arpm2TrO54-2" value="Pendulum Call" style="whiteSpace=wrap;html=1;fillColor=#e1d5e7;strokeColor=#9673a6;" parent="TkjOUOhSY8arpm2TrO54-1" vertex="1">
          <mxGeometry x="90" y="40" width="120" height="60" as="geometry" />
        </mxCell>
        <mxCell id="TkjOUOhSY8arpm2TrO54-3" value="Dragonpit Magician" style="whiteSpace=wrap;html=1;" parent="TkjOUOhSY8arpm2TrO54-1" vertex="1">
          <mxGeometry x="160" y="150" width="120" height="60" as="geometry" />
        </mxCell>
        <mxCell id="TkjOUOhSY8arpm2TrO54-4" style="edgeStyle=orthogonalEdgeStyle;rounded=0;orthogonalLoop=1;jettySize=auto;html=1;" parent="TkjOUOhSY8arpm2TrO54-1" source="TkjOUOhSY8arpm2TrO54-2" target="TkjOUOhSY8arpm2TrO54-3" edge="1">
          <mxGeometry relative="1" as="geometry" />
        </mxCell>
        <mxCell id="TkjOUOhSY8arpm2TrO54-5" value="Dragonpulse Magician" style="whiteSpace=wrap;html=1;" parent="TkjOUOhSY8arpm2TrO54-1" vertex="1">
          <mxGeometry x="20" y="150" width="120" height="60" as="geometry" />
        </mxCell>
        <mxCell id="TkjOUOhSY8arpm2TrO54-6" style="edgeStyle=orthogonalEdgeStyle;rounded=0;orthogonalLoop=1;jettySize=auto;html=1;" parent="TkjOUOhSY8arpm2TrO54-1" source="TkjOUOhSY8arpm2TrO54-2" target="TkjOUOhSY8arpm2TrO54-5" edge="1">
          <mxGeometry relative="1" as="geometry" />
        </mxCell>
        <mxCell id="2ZK7jNG9v2DSAAOjWctX-1" value="Cipher Twin Rapter" style="rounded=0;whiteSpace=wrap;html=1;fillColor=#dae8fc;strokeColor=#6c8ebf;" parent="ktGTE_c1SDz5uOH07skm-22" vertex="1">
          <mxGeometry x="20" y="110" width="120" height="60" as="geometry" />
        </mxCell>
        <mxCell id="GI5gR9P13quGaoXbZktA-1" value="Galaxy Soldier" style="whiteSpace=wrap;html=1;fillColor=#ffe6cc;strokeColor=#d79b00;" parent="ktGTE_c1SDz5uOH07skm-22" vertex="1">
          <mxGeometry x="20" y="40" width="120" height="60" as="geometry" />
        </mxCell>
        <mxCell id="r15IYq8nVFfZDKdNq3Vh-1" value="Maiden with Eyes of Blue" style="swimlane;" parent="1" vertex="1">
          <mxGeometry x="353.5" y="4220" width="310" height="120" as="geometry" />
        </mxCell>
        <mxCell id="r15IYq8nVFfZDKdNq3Vh-2" value="Blue-Eyes White Dragon" style="whiteSpace=wrap;html=1;fillColor=#e1d5e7;strokeColor=#9673a6;" parent="r15IYq8nVFfZDKdNq3Vh-1" vertex="1">
          <mxGeometry x="160" y="40" width="123" height="60" as="geometry" />
        </mxCell>
        <mxCell id="r15IYq8nVFfZDKdNq3Vh-3" value="" style="edgeStyle=orthogonalEdgeStyle;rounded=0;orthogonalLoop=1;jettySize=auto;html=1;verticalAlign=bottom;" parent="r15IYq8nVFfZDKdNq3Vh-1" source="r15IYq8nVFfZDKdNq3Vh-4" target="r15IYq8nVFfZDKdNq3Vh-2" edge="1">
          <mxGeometry relative="1" as="geometry" />
        </mxCell>
        <mxCell id="r15IYq8nVFfZDKdNq3Vh-4" value="Maiden with Eyes of Blue" style="whiteSpace=wrap;html=1;fillColor=#dae8fc;strokeColor=#6c8ebf;" parent="r15IYq8nVFfZDKdNq3Vh-1" vertex="1">
          <mxGeometry x="20" y="40" width="120" height="60" as="geometry" />
        </mxCell>
        <mxCell id="r15IYq8nVFfZDKdNq3Vh-5" value="" style="endArrow=none;dashed=1;html=1;dashPattern=1 3;strokeWidth=2;rounded=0;entryX=0.5;entryY=1;entryDx=0;entryDy=0;exitX=0.5;exitY=0;exitDx=0;exitDy=0;" parent="1" source="r15IYq8nVFfZDKdNq3Vh-1" target="ktGTE_c1SDz5uOH07skm-1" edge="1">
          <mxGeometry width="50" height="50" relative="1" as="geometry">
            <mxPoint x="580" y="4090" as="sourcePoint" />
            <mxPoint x="630" y="4040" as="targetPoint" />
          </mxGeometry>
        </mxCell>
      </root>
    </mxGraphModel>
  </diagram>
  <diagram id="btF-FsLcd4CbQXd-jg1l" name="Warrior">
    <mxGraphModel dx="11" dy="-45" grid="1" gridSize="10" guides="1" tooltips="1" connect="1" arrows="1" fold="1" page="1" pageScale="1" pageWidth="850" pageHeight="1100" math="0" shadow="0">
      <root>
        <mxCell id="0" />
        <mxCell id="1" parent="0" />
        <mxCell id="X5v_cUpA-14vUlO8kyE_-1" style="edgeStyle=orthogonalEdgeStyle;rounded=0;orthogonalLoop=1;jettySize=auto;html=1;entryX=0;entryY=0.5;entryDx=0;entryDy=0;" parent="1" source="X5v_cUpA-14vUlO8kyE_-2" target="X5v_cUpA-14vUlO8kyE_-3" edge="1">
          <mxGeometry relative="1" as="geometry" />
        </mxCell>
        <mxCell id="g3G3fKLFa_LotONrqyEx-2" style="edgeStyle=orthogonalEdgeStyle;rounded=0;orthogonalLoop=1;jettySize=auto;html=1;entryX=0;entryY=0.5;entryDx=0;entryDy=0;" edge="1" parent="1" source="X5v_cUpA-14vUlO8kyE_-2" target="g3G3fKLFa_LotONrqyEx-1">
          <mxGeometry relative="1" as="geometry" />
        </mxCell>
        <mxCell id="X5v_cUpA-14vUlO8kyE_-2" value="Reinforcement of the Army" style="whiteSpace=wrap;html=1;fillColor=#e1d5e7;strokeColor=#9673a6;" parent="1" vertex="1">
          <mxGeometry x="1720" y="1440" width="120" height="60" as="geometry" />
        </mxCell>
        <mxCell id="X5v_cUpA-14vUlO8kyE_-3" value="Level 4 or Lower Warrior" style="swimlane;" parent="1" vertex="1">
          <mxGeometry x="2005" y="1140" width="290" height="260" as="geometry" />
        </mxCell>
        <mxCell id="X5v_cUpA-14vUlO8kyE_-4" value="Armageddon Knight" style="whiteSpace=wrap;html=1;fillColor=#fff2cc;strokeColor=#d6b656;" parent="X5v_cUpA-14vUlO8kyE_-3" vertex="1">
          <mxGeometry x="150" y="40" width="120" height="60" as="geometry" />
        </mxCell>
        <mxCell id="X5v_cUpA-14vUlO8kyE_-5" value="G.B. Hunter" style="whiteSpace=wrap;html=1;fillColor=#fff2cc;strokeColor=#d6b656;" parent="X5v_cUpA-14vUlO8kyE_-3" vertex="1">
          <mxGeometry x="20" y="110" width="120" height="60" as="geometry" />
        </mxCell>
        <mxCell id="X5v_cUpA-14vUlO8kyE_-6" value="Heroic Challenger - Assault Halberd" style="whiteSpace=wrap;html=1;fillColor=#fff2cc;strokeColor=#d6b656;" parent="X5v_cUpA-14vUlO8kyE_-3" vertex="1">
          <mxGeometry x="150" y="110" width="120" height="60" as="geometry" />
        </mxCell>
        <mxCell id="X5v_cUpA-14vUlO8kyE_-7" value="Elemental HERO Shadow Mist" style="whiteSpace=wrap;html=1;fillColor=#fff2cc;strokeColor=#d6b656;" parent="X5v_cUpA-14vUlO8kyE_-3" vertex="1">
          <mxGeometry x="20" y="180" width="120" height="60" as="geometry" />
        </mxCell>
        <mxCell id="X5v_cUpA-14vUlO8kyE_-8" value="Dragodies, the Empowered Warrior" style="whiteSpace=wrap;html=1;fillColor=#fff2cc;strokeColor=#d6b656;" parent="X5v_cUpA-14vUlO8kyE_-3" vertex="1">
          <mxGeometry x="150" y="180" width="120" height="60" as="geometry" />
        </mxCell>
        <mxCell id="g3G3fKLFa_LotONrqyEx-1" value="Clavkiys, the Magikey Skyblaster" style="whiteSpace=wrap;html=1;fillColor=#dae8fc;strokeColor=#6c8ebf;" vertex="1" parent="1">
          <mxGeometry x="2005" y="1440" width="120" height="60" as="geometry" />
        </mxCell>
        <mxCell id="g3G3fKLFa_LotONrqyEx-3" value="Maginificent Magikey Mafteal" style="whiteSpace=wrap;html=1;fillColor=#dae8fc;strokeColor=#6c8ebf;" vertex="1" parent="1">
          <mxGeometry x="2140" y="1440" width="120" height="60" as="geometry" />
        </mxCell>
        <mxCell id="g3G3fKLFa_LotONrqyEx-4" value="" style="shape=link;html=1;rounded=0;exitX=1;exitY=0.5;exitDx=0;exitDy=0;entryX=0;entryY=0.5;entryDx=0;entryDy=0;" edge="1" parent="1" source="g3G3fKLFa_LotONrqyEx-1" target="g3G3fKLFa_LotONrqyEx-3">
          <mxGeometry width="100" relative="1" as="geometry">
            <mxPoint x="2230" y="1500" as="sourcePoint" />
            <mxPoint x="2330" y="1500" as="targetPoint" />
          </mxGeometry>
        </mxCell>
      </root>
    </mxGraphModel>
  </diagram>
  <diagram id="4NMVLsTBbChi3mvKcYzQ" name="Winged Beast">
    <mxGraphModel dx="394" dy="1881" grid="1" gridSize="10" guides="1" tooltips="1" connect="1" arrows="1" fold="1" page="1" pageScale="1" pageWidth="850" pageHeight="1100" math="0" shadow="0">
      <root>
        <mxCell id="0" />
        <mxCell id="1" parent="0" />
        <mxCell id="N88E2MRQ-NXjL6fFolW4-1" value="Floowandereeze Search" style="swimlane;" vertex="1" parent="1">
          <mxGeometry x="880" y="-1080" width="510" height="590" as="geometry" />
        </mxCell>
        <mxCell id="APVUbxBJNcDSf0LA1RpC-1" value="Robina Search" style="swimlane;" vertex="1" parent="N88E2MRQ-NXjL6fFolW4-1">
          <mxGeometry x="20" y="40" width="470" height="330" as="geometry" />
        </mxCell>
        <mxCell id="APVUbxBJNcDSf0LA1RpC-2" value="" style="edgeStyle=orthogonalEdgeStyle;rounded=0;orthogonalLoop=1;jettySize=auto;html=1;entryX=0;entryY=0.5;entryDx=0;entryDy=0;" edge="1" parent="APVUbxBJNcDSf0LA1RpC-1" source="APVUbxBJNcDSf0LA1RpC-3" target="APVUbxBJNcDSf0LA1RpC-4">
          <mxGeometry relative="1" as="geometry" />
        </mxCell>
        <mxCell id="APVUbxBJNcDSf0LA1RpC-3" value="Floowandereeze &amp;amp; Robina" style="whiteSpace=wrap;html=1;fillColor=#ffe6cc;strokeColor=#d79b00;" vertex="1" parent="APVUbxBJNcDSf0LA1RpC-1">
          <mxGeometry x="20" y="140" width="120" height="60" as="geometry" />
        </mxCell>
        <mxCell id="APVUbxBJNcDSf0LA1RpC-4" value="Level 4 or lower Winged Beast" style="swimlane;" vertex="1" parent="APVUbxBJNcDSf0LA1RpC-1">
          <mxGeometry x="170" y="40" width="275" height="260" as="geometry" />
        </mxCell>
        <mxCell id="APVUbxBJNcDSf0LA1RpC-5" value="Floowandereeze &amp;amp; Eglen" style="whiteSpace=wrap;html=1;fillColor=#ffe6cc;strokeColor=#d79b00;" vertex="1" parent="APVUbxBJNcDSf0LA1RpC-4">
          <mxGeometry x="20" y="40" width="120" height="60" as="geometry" />
        </mxCell>
        <mxCell id="APVUbxBJNcDSf0LA1RpC-6" value="Blackwing - Gale the Whrilwind" style="whiteSpace=wrap;html=1;fillColor=#ffe6cc;strokeColor=#d79b00;" vertex="1" parent="APVUbxBJNcDSf0LA1RpC-4">
          <mxGeometry x="20" y="110" width="120" height="60" as="geometry" />
        </mxCell>
        <mxCell id="APVUbxBJNcDSf0LA1RpC-7" value="Shield Wing" style="whiteSpace=wrap;html=1;fillColor=#ffe6cc;strokeColor=#d79b00;" vertex="1" parent="APVUbxBJNcDSf0LA1RpC-4">
          <mxGeometry x="20" y="180" width="120" height="60" as="geometry" />
        </mxCell>
        <mxCell id="APVUbxBJNcDSf0LA1RpC-8" value="Phantom Gryphon" style="whiteSpace=wrap;html=1;fillColor=#dae8fc;strokeColor=#6c8ebf;" vertex="1" parent="APVUbxBJNcDSf0LA1RpC-4">
          <mxGeometry x="140" y="40" width="120" height="60" as="geometry" />
        </mxCell>
        <mxCell id="APVUbxBJNcDSf0LA1RpC-9" value="Eglen Search" style="swimlane;" vertex="1" parent="N88E2MRQ-NXjL6fFolW4-1">
          <mxGeometry x="20" y="390" width="460" height="180" as="geometry" />
        </mxCell>
        <mxCell id="APVUbxBJNcDSf0LA1RpC-10" style="edgeStyle=orthogonalEdgeStyle;rounded=0;orthogonalLoop=1;jettySize=auto;html=1;entryX=0;entryY=0.5;entryDx=0;entryDy=0;" edge="1" parent="APVUbxBJNcDSf0LA1RpC-9" source="APVUbxBJNcDSf0LA1RpC-11" target="APVUbxBJNcDSf0LA1RpC-12">
          <mxGeometry relative="1" as="geometry" />
        </mxCell>
        <mxCell id="APVUbxBJNcDSf0LA1RpC-11" value="Floowandereeze &amp;amp; Eglen" style="whiteSpace=wrap;html=1;fillColor=#ffe6cc;strokeColor=#d79b00;" vertex="1" parent="APVUbxBJNcDSf0LA1RpC-9">
          <mxGeometry x="20" y="70" width="120" height="60" as="geometry" />
        </mxCell>
        <mxCell id="APVUbxBJNcDSf0LA1RpC-12" value="Level 7 or higher Winged Beast" style="swimlane;" vertex="1" parent="APVUbxBJNcDSf0LA1RpC-9">
          <mxGeometry x="157.5" y="40" width="282.5" height="120" as="geometry" />
        </mxCell>
        <mxCell id="APVUbxBJNcDSf0LA1RpC-13" value="Floowandereeze &amp;amp; Snowl" style="whiteSpace=wrap;html=1;fillColor=#e1d5e7;strokeColor=#9673a6;" vertex="1" parent="APVUbxBJNcDSf0LA1RpC-12">
          <mxGeometry x="25" y="40" width="120" height="60" as="geometry" />
        </mxCell>
        <mxCell id="APVUbxBJNcDSf0LA1RpC-14" value="Floowandereeze &amp;amp; Empen" style="whiteSpace=wrap;html=1;fillColor=#ffe6cc;strokeColor=#d79b00;" vertex="1" parent="APVUbxBJNcDSf0LA1RpC-12">
          <mxGeometry x="145" y="40" width="120" height="60" as="geometry" />
        </mxCell>
      </root>
    </mxGraphModel>
  </diagram>
</mxfile>
